<?xml version="1.0" encoding="UTF-8"?> <svg xmlns="http://www.w3.org/2000/svg" xmlns:xlink="http://www.w3.org/1999/xlink" clip-rule="evenodd" fill-rule="evenodd" stroke-linejoin="round" stroke-miterlimit="2" viewBox="0 0 800 480"><clipPath id="a"><path clip-rule="evenodd" d="m0 0h800v480h-800z"></path></clipPath><path d="m0 0h800v480h-800z" fill="#006097"></path><g clip-path="url(#a)"><g fill="#fff" opacity=".28"><path d="m634.163 179.59c5.191-3.517 12.26-2.158 15.777 3.033s2.157 12.26-3.033 15.777c-5.191 3.516-12.26 2.157-15.777-3.034-3.517-5.19-2.157-12.26 3.033-15.776z"></path><path d="m686.045 153.32-47.626 32.266 4.497 6.639 47.627-32.266z"></path><path d="m225.322 358.098c5.191-3.517 12.26-2.158 15.777 3.033 3.516 5.191 2.157 12.26-3.033 15.777-5.191 3.516-12.26 2.157-15.777-3.034-3.517-5.19-2.158-12.26 3.033-15.776z"></path><path d="m679.216 50.595c5.191-3.517 12.26-2.158 15.777 3.033 3.516 5.191 2.157 12.26-3.033 15.777-5.191 3.516-12.26 2.157-15.777-3.034-3.517-5.19-2.157-12.26 3.033-15.776z"></path><path d="m731.098 24.325-47.627 32.266 4.498 6.639 47.627-32.266z"></path><path d="m-4.077 415.038c5.191-3.517 12.26-2.157 15.777 3.033 3.516 5.191 2.157 12.26-3.034 15.777-5.19 3.517-12.26 2.157-15.776-3.033-3.517-5.191-2.158-12.26 3.033-15.777z"></path><path d="m90.908 359.566-90.778 61.501 4.497 6.639 90.779-61.501z"></path><path d="m88.866 352.071c5.191-3.516 12.26-2.157 15.777 3.033 3.516 5.191 2.157 12.26-3.034 15.777-5.19 3.517-12.26 2.157-15.776-3.033-3.517-5.191-2.158-12.26 3.033-15.777z"></path><path d="m186.073 393.567 43.504-29.473 4.498 6.639-47.035 31.865-93.213-37.458 2.99-7.441z"></path><path d="m638.419 185.586 4.497 6.639-228.054 154.501-91.234-36.663-39.229 26.649-.064-9.715 38.317-25.955 91.243 36.654z"></path><path d="m369.156 269.532 314.315-212.941 4.498 6.639-317.75 215.268-2.074-.73-93.213-37.459 2.99-7.44z"></path><path d="m93.073 358.1 181.557-123.001 4.498 6.639-181.558 123.001z"></path><path d="m273.148 334.576-.278-96.146 8.019-.023.25 100.06-47.064 32.266-4.498-6.639z"></path><path d="m726.468-68.346.284 98.277 8.019-.023-.284-98.277z"></path><path d="m682.234 59.61.29 100.349 8.019-.024-.29-100.348z"></path><path d="m270.375 229.103c5.191-3.517 12.26-2.158 15.777 3.033 3.516 5.191 2.157 12.26-3.034 15.777-5.19 3.516-12.26 2.157-15.776-3.034-3.517-5.19-2.158-12.26 3.033-15.776z"></path><path d="m637.746-10.904 4.497 6.639-181.557 123.001-.242-.356.242.356-181.558 123.002-4.498-6.639z"></path><path d="m322.529 399.594 46.92-31.896 91.279 36.742 41.859-28.359 4.498 6.639-45.414 30.767-.024-.036-91.187-36.644-46.964 31.818-93.213-37.459 2.99-7.44z"></path><path d="m498.332 370.085c5.19-3.516 12.26-2.157 15.776 3.034 3.517 5.191 2.158 12.26-3.033 15.776-5.191 3.517-12.26 2.158-15.777-3.033-3.516-5.191-2.157-12.26 3.034-15.777z"></path><path d="m593.366 314.581-90.779 61.5 4.498 6.639 90.778-61.5z"></path><path d="m589.111 308.585c5.19-3.517 12.26-2.158 15.776 3.033 3.517 5.191 2.158 12.26-3.033 15.777-5.191 3.516-12.26 2.157-15.777-3.034-3.516-5.19-2.157-12.26 3.034-15.776z"></path><path d="m636.575 285.308-.28-96.669 8.019-.023.297 100.875-46.748 31.729-4.497-6.639z"></path></g><g fill="#fff" opacity=".35"><path d="m105.322 94.098c5.191-3.517 12.26-2.158 15.777 3.033 3.516 5.191 2.157 12.26-3.033 15.777-5.191 3.516-12.26 2.157-15.777-3.034-3.517-5.19-2.158-12.26 3.033-15.776z"></path><path d="m66.073 129.567 43.504-29.473 4.498 6.639-47.035 31.865-93.213-37.458 2.99-7.441z"></path><path d="m518.419-78.414 4.497 6.639-228.054 154.501-91.234-36.663-39.229 26.649-.064-9.715 38.317-25.955 91.243 36.654z"></path><path d="m249.156 5.532 314.315-212.941 4.498 6.639-317.75 215.268-2.074-.73-93.213-37.459 2.99-7.44 91.234 36.663z"></path><path d="m-26.927 94.1 181.557-123.001 4.498 6.639-181.558 123.001z"></path><path d="m153.148 70.576-.278-96.146 8.019-.023.25 100.06-47.064 32.266-4.498-6.639z"></path><path d="m202.529 135.594 46.92-31.896 91.279 36.742 41.859-28.359 4.498 6.639-45.414 30.767-.024-.036-91.187-36.644-46.964 31.818-93.213-37.459 2.99-7.44z"></path><path d="m378.332 106.085c5.19-3.516 12.26-2.157 15.776 3.034 3.517 5.191 2.158 12.26-3.033 15.776-5.191 3.517-12.26 2.158-15.777-3.033-3.516-5.191-2.157-12.26 3.034-15.777z"></path><path d="m473.366 50.581-90.779 61.5 4.498 6.639 90.778-61.5z"></path><path d="m469.111 44.585c5.19-3.517 12.26-2.158 15.776 3.033 3.517 5.191 2.158 12.26-3.033 15.777-5.191 3.516-12.26 2.157-15.777-3.034-3.516-5.19-2.157-12.26 3.034-15.776z"></path><path d="m516.575 21.308-.28-96.669 8.019-.023.297 100.875-46.748 31.729-4.497-6.639z"></path></g><g fill="#fff" opacity=".17"><path d="m311.163 6.59c5.191-3.517 12.26-2.158 15.777 3.033s2.157 12.26-3.033 15.777c-5.191 3.516-12.26 2.157-15.777-3.034-3.517-5.19-2.157-12.26 3.033-15.776z"></path><path d="m363.045-19.68-47.626 32.266 4.497 6.639 47.627-32.266z"></path><path d="m315.419 12.586 4.497 6.639-228.054 154.501-91.234-36.663-39.229 26.649-.064-9.715 38.317-25.955 91.243 36.654 224.524-152.11z"></path><path d="m46.156 96.532 314.315-212.941 4.498 6.639-317.75 215.268-2.074-.73-93.213-37.459 2.99-7.44z"></path><path d="m314.746-183.904 4.497 6.639-181.557 123.001-.242-.356.242.356-181.558 123.002-4.498-6.639z"></path><path d="m-.471 226.594 46.92-31.896 91.279 36.742 41.859-28.359 4.498 6.639-45.414 30.767-.024-.036-91.187-36.644-46.964 31.818-93.213-37.459 2.99-7.44 89.256 35.868z"></path><path d="m175.332 197.085c5.19-3.516 12.26-2.157 15.776 3.034 3.517 5.191 2.158 12.26-3.033 15.776-5.191 3.517-12.26 2.158-15.777-3.033-3.516-5.191-2.157-12.26 3.034-15.777z"></path><path d="m270.366 141.581-90.779 61.5 4.498 6.639 90.778-61.5z"></path><path d="m266.111 135.585c5.19-3.517 12.26-2.158 15.776 3.033 3.517 5.191 2.158 12.26-3.033 15.777-5.191 3.516-12.26 2.157-15.777-3.034-3.516-5.19-2.157-12.26 3.034-15.776z"></path><path d="m313.575 112.308-.28-96.669 8.019-.023.297 100.875-46.748 31.729-4.497-6.639z"></path></g><g fill="#fff" opacity=".14"><path d="m721.163 367.59c5.191-3.517 12.26-2.158 15.777 3.033s2.157 12.26-3.033 15.777c-5.191 3.516-12.26 2.157-15.777-3.034-3.517-5.19-2.157-12.26 3.033-15.776z"></path><path d="m773.045 341.32-47.626 32.266 4.497 6.639 47.627-32.266z"></path><path d="m766.216 238.595c5.191-3.517 12.26-2.158 15.777 3.033 3.516 5.191 2.157 12.26-3.033 15.777-5.191 3.516-12.26 2.157-15.777-3.034-3.517-5.19-2.157-12.26 3.033-15.776z"></path><path d="m818.098 212.325-47.627 32.266 4.498 6.639 47.627-32.266z"></path><path d="m725.419 373.586 4.497 6.639-228.054 154.501-91.234-36.663-39.229 26.649-.064-9.715 38.317-25.955 91.243 36.654z"></path><path d="m456.156 457.532 314.315-212.941 4.498 6.639-317.75 215.268-2.074-.73-93.213-37.459 2.99-7.44z"></path><path d="m180.073 546.1 181.557-123.001 4.498 6.639-181.558 123.001z"></path><path d="m360.148 522.576-.278-96.146 8.019-.023.25 100.06-47.064 32.266-4.498-6.639z"></path><path d="m768.398 247.61.284 98.277 8.019-.023-.284-98.277z"></path><path d="m357.375 417.103c5.191-3.517 12.26-2.158 15.777 3.033 3.516 5.191 2.157 12.26-3.034 15.777-5.19 3.516-12.26 2.157-15.776-3.034-3.517-5.19-2.158-12.26 3.033-15.776z"></path><path d="m724.746 177.096 4.497 6.639-181.557 123.001-.242-.356.242.356-181.558 123.002-4.498-6.639z"></path><path d="m815.524 115.596-90.778 61.5 4.497 6.639 90.779-61.5z"></path><path d="m723.575 473.308-.28-96.669 8.019-.023.297 100.875-46.748 31.729-4.497-6.639z"></path></g><path d="m737.907 212.097c0-4.221-3.422-7.643-7.643-7.643-69.492 0-591.036 0-660.528 0-4.221 0-7.643 3.422-7.643 7.643v55.806c0 4.221 3.422 7.643 7.643 7.643h660.528c4.221 0 7.643-3.422 7.643-7.643 0-13.667 0-42.139 0-55.806z" fill="#1c1c1c" fill-opacity=".75"></path><g fill-rule="nonzero"><path d="m.143.081c0 .025.013.046.04.062s.067.024.119.024c.028 0 .053-.003.076-.009.023-.005.042-.013.058-.022s.028-.02.036-.032c.009-.012.013-.024.013-.037 0-.023-.009-.039-.028-.047-.018-.008-.046-.012-.083-.012h-.095c-.014 0-.027-.001-.04-.002-.012-.001-.023-.003-.034-.006-.023.013-.04.026-.049.039-.009.014-.013.028-.013.042zm-.071.008c0-.019.007-.038.02-.057.014-.019.034-.036.06-.051v-.004c-.013-.007-.025-.017-.035-.03s-.015-.029-.015-.05c0-.015.005-.031.015-.048.01-.016.024-.03.043-.043v-.004c-.017-.013-.031-.03-.043-.051-.011-.021-.017-.046-.017-.075 0-.027.005-.051.015-.072.011-.021.025-.039.042-.054.017-.016.037-.027.06-.035.023-.009.048-.013.074-.013.027 0 .051.004.072.012h.201v.063h-.13c.011.012.022.027.031.044s.014.037.014.058c0 .026-.005.049-.015.07-.009.021-.023.038-.04.052-.017.015-.037.026-.06.034-.023.007-.047.011-.073.011-.013 0-.026-.002-.041-.005-.014-.003-.028-.007-.041-.013-.025.016-.038.035-.038.056 0 .019.009.034.026.043.018.009.043.013.075.013h.109c.063 0 .109.009.139.026.031.017.046.047.046.088 0 .023-.006.044-.019.065s-.031.039-.054.054-.052.028-.085.037-.071.014-.112.014c-.071 0-.127-.012-.166-.035s-.058-.057-.058-.1zm.219-.298c.031 0 .058-.01.079-.031.022-.021.033-.049.033-.084 0-.017-.003-.032-.009-.046s-.014-.026-.024-.036-.022-.018-.035-.023c-.014-.006-.029-.009-.044-.009s-.03.003-.043.009c-.014.005-.026.013-.036.023s-.018.022-.024.036-.009.029-.009.046c0 .035.011.063.033.084s.048.031.079.031z" fill="#3bff00" transform="matrix(24 0 0 24 90.4596 246.0001)"></path><path d="m.09-.486h.308v.486h-.082v-.419h-.226zm.258-.1c-.019 0-.035-.006-.047-.017-.013-.011-.019-.027-.019-.046s.006-.035.019-.046c.012-.012.028-.018.047-.018s.034.006.047.018c.013.011.019.027.019.046s-.006.035-.019.046-.028.017-.047.017z" fill="#3bff00" transform="matrix(24 0 0 24 104.8596 246.0001)"></path><path d="m.206-.419h-.137v-.062l.14-.005.011-.136h.068v.136h.239v.067h-.239v.231c0 .022.002.041.006.057.004.017.011.031.02.042s.022.02.038.025c.016.006.036.009.059.009s.044-.002.063-.006.037-.009.054-.016l.018.06c-.022.008-.046.015-.073.02-.027.006-.053.009-.08.009-.035 0-.065-.005-.089-.015-.024-.009-.043-.023-.058-.041-.014-.017-.024-.038-.031-.063-.006-.025-.009-.052-.009-.082z" fill="#3bff00" transform="matrix(24 0 0 24 119.2596 246.0001)"></path><path d="m.08-.242c0-.041.007-.077.022-.109.014-.031.033-.058.058-.08s.054-.039.086-.05c.034-.011.068-.017.105-.017.04 0 .075.007.104.021s.053.031.073.05l-.041.053c-.02-.017-.041-.031-.062-.041-.022-.01-.046-.015-.071-.015-.028 0-.054.005-.077.014-.023.008-.043.021-.059.038-.017.017-.03.037-.039.059-.009.023-.014.049-.014.077s.005.053.014.076.021.042.038.058c.016.017.036.029.059.038s.048.014.076.014c.03 0 .058-.006.083-.018.025-.011.047-.026.068-.043l.036.053c-.027.024-.056.043-.089.056-.033.013-.068.02-.104.02-.038 0-.073-.006-.105-.017-.033-.011-.061-.028-.085-.05-.024-.021-.043-.048-.056-.08-.013-.031-.02-.067-.02-.107z" fill="#fff" transform="matrix(24 0 0 24 148.0596 246.0001)"></path><path d="m.06-.242c0-.041.007-.077.02-.109.013-.031.03-.058.052-.08s.047-.039.076-.05.06-.017.092-.017.063.006.091.017c.03.011.055.028.077.05s.039.049.052.08c.013.032.02.068.02.109 0 .04-.007.076-.02.107-.013.032-.03.059-.052.081-.022.021-.047.038-.077.049-.028.011-.059.017-.091.017s-.063-.006-.092-.017-.054-.028-.076-.049c-.022-.022-.04-.049-.053-.081-.013-.031-.019-.067-.019-.107zm.085 0c0 .028.004.053.011.076s.018.042.031.058c.014.017.03.029.049.038s.041.014.064.014.044-.005.063-.014.036-.021.049-.038c.014-.016.025-.035.032-.058s.011-.048.011-.076-.004-.054-.011-.077c-.007-.022-.018-.042-.032-.059-.013-.017-.03-.03-.049-.038-.019-.01-.04-.014-.063-.014s-.045.005-.064.014c-.019.008-.035.021-.049.038-.013.017-.024.037-.031.059-.007.023-.011.049-.011.077z" fill="#fff" transform="matrix(24 0 0 24 162.4596 246.0001)"></path><path d="m.093-.486h.068l.007.083h.004c.025-.027.053-.05.082-.068s.063-.027.101-.027c.058 0 .101.016.128.049.026.033.04.082.04.147v.302h-.082v-.291c0-.046-.009-.08-.026-.102-.017-.023-.046-.034-.086-.034-.015 0-.028.002-.04.006-.013.003-.025.009-.037.016s-.024.017-.037.028-.026.023-.04.038v.339h-.082z" fill="#fff" transform="matrix(24 0 0 24 176.8596 246.0001)"></path><path d="m.559-.634c-.02-.009-.038-.016-.055-.018-.017-.003-.037-.005-.058-.005-.044 0-.076.011-.094.033-.019.023-.029.054-.029.094v.044h.204v.067h-.204v.419h-.081v-.419h-.139v-.062l.139-.005v-.041c0-.059.016-.107.048-.143.031-.036.081-.054.148-.054.048 0 .095.009.14.028z" fill="#fff" transform="matrix(24 0 0 24 191.2596 246.0001)"></path><path d="m.09-.486h.308v.486h-.082v-.419h-.226zm.258-.1c-.019 0-.035-.006-.047-.017-.013-.011-.019-.027-.019-.046s.006-.035.019-.046c.012-.012.028-.018.047-.018s.034.006.047.018c.013.011.019.027.019.046s-.006.035-.019.046-.028.017-.047.017z" fill="#fff" transform="matrix(24 0 0 24 205.6596 246.0001)"></path><path d="m.143.081c0 .025.013.046.04.062s.067.024.119.024c.028 0 .053-.003.076-.009.023-.005.042-.013.058-.022s.028-.02.036-.032c.009-.012.013-.024.013-.037 0-.023-.009-.039-.028-.047-.018-.008-.046-.012-.083-.012h-.095c-.014 0-.027-.001-.04-.002-.012-.001-.023-.003-.034-.006-.023.013-.04.026-.049.039-.009.014-.013.028-.013.042zm-.071.008c0-.019.007-.038.02-.057.014-.019.034-.036.06-.051v-.004c-.013-.007-.025-.017-.035-.03s-.015-.029-.015-.05c0-.015.005-.031.015-.048.01-.016.024-.03.043-.043v-.004c-.017-.013-.031-.03-.043-.051-.011-.021-.017-.046-.017-.075 0-.027.005-.051.015-.072.011-.021.025-.039.042-.054.017-.016.037-.027.06-.035.023-.009.048-.013.074-.013.027 0 .051.004.072.012h.201v.063h-.13c.011.012.022.027.031.044s.014.037.014.058c0 .026-.005.049-.015.07-.009.021-.023.038-.04.052-.017.015-.037.026-.06.034-.023.007-.047.011-.073.011-.013 0-.026-.002-.041-.005-.014-.003-.028-.007-.041-.013-.025.016-.038.035-.038.056 0 .019.009.034.026.043.018.009.043.013.075.013h.109c.063 0 .109.009.139.026.031.017.046.047.046.088 0 .023-.006.044-.019.065s-.031.039-.054.054-.052.028-.085.037-.071.014-.112.014c-.071 0-.127-.012-.166-.035s-.058-.057-.058-.1zm.219-.298c.031 0 .058-.01.079-.031.022-.021.033-.049.033-.084 0-.017-.003-.032-.009-.046s-.014-.026-.024-.036-.022-.018-.035-.023c-.014-.006-.029-.009-.044-.009s-.03.003-.043.009c-.014.005-.026.013-.036.023s-.018.022-.024.036-.009.029-.009.046c0 .035.011.063.033.084s.048.031.079.031z" fill="#fff" transform="matrix(24 0 0 24 220.0596 246.0001)"></path><path d="m.085-.361h.43v.062h-.43z" fill="#fff" transform="matrix(24 0 0 24 248.8596 246.0001)"></path><path d="m.085-.361h.43v.062h-.43z" fill="#fff" transform="matrix(24 0 0 24 263.2596 246.0001)"></path><path d="m.143.081c0 .025.013.046.04.062s.067.024.119.024c.028 0 .053-.003.076-.009.023-.005.042-.013.058-.022s.028-.02.036-.032c.009-.012.013-.024.013-.037 0-.023-.009-.039-.028-.047-.018-.008-.046-.012-.083-.012h-.095c-.014 0-.027-.001-.04-.002-.012-.001-.023-.003-.034-.006-.023.013-.04.026-.049.039-.009.014-.013.028-.013.042zm-.071.008c0-.019.007-.038.02-.057.014-.019.034-.036.06-.051v-.004c-.013-.007-.025-.017-.035-.03s-.015-.029-.015-.05c0-.015.005-.031.015-.048.01-.016.024-.03.043-.043v-.004c-.017-.013-.031-.03-.043-.051-.011-.021-.017-.046-.017-.075 0-.027.005-.051.015-.072.011-.021.025-.039.042-.054.017-.016.037-.027.06-.035.023-.009.048-.013.074-.013.027 0 .051.004.072.012h.201v.063h-.13c.011.012.022.027.031.044s.014.037.014.058c0 .026-.005.049-.015.07-.009.021-.023.038-.04.052-.017.015-.037.026-.06.034-.023.007-.047.011-.073.011-.013 0-.026-.002-.041-.005-.014-.003-.028-.007-.041-.013-.025.016-.038.035-.038.056 0 .019.009.034.026.043.018.009.043.013.075.013h.109c.063 0 .109.009.139.026.031.017.046.047.046.088 0 .023-.006.044-.019.065s-.031.039-.054.054-.052.028-.085.037-.071.014-.112.014c-.071 0-.127-.012-.166-.035s-.058-.057-.058-.1zm.219-.298c.031 0 .058-.01.079-.031.022-.021.033-.049.033-.084 0-.017-.003-.032-.009-.046s-.014-.026-.024-.036-.022-.018-.035-.023c-.014-.006-.029-.009-.044-.009s-.03.003-.043.009c-.014.005-.026.013-.036.023s-.018.022-.024.036-.009.029-.009.046c0 .035.011.063.033.084s.048.031.079.031z" fill="#fff" transform="matrix(24 0 0 24 277.6596 246.0001)"></path><path d="m.081-.712h.248v.555c0 .036.008.062.025.077.017.016.041.024.07.024.027 0 .057-.008.092-.023l.021.062c-.022.008-.043.015-.062.02-.019.006-.042.009-.069.009-.052 0-.092-.015-.118-.044-.028-.029-.041-.073-.041-.131v-.482h-.166z" fill="#fff" transform="matrix(24 0 0 24 292.0596 246.0001)"></path><path d="m.06-.242c0-.041.007-.077.02-.109.013-.031.03-.058.052-.08s.047-.039.076-.05.06-.017.092-.017.063.006.091.017c.03.011.055.028.077.05s.039.049.052.08c.013.032.02.068.02.109 0 .04-.007.076-.02.107-.013.032-.03.059-.052.081-.022.021-.047.038-.077.049-.028.011-.059.017-.091.017s-.063-.006-.092-.017-.054-.028-.076-.049c-.022-.022-.04-.049-.053-.081-.013-.031-.019-.067-.019-.107zm.085 0c0 .028.004.053.011.076s.018.042.031.058c.014.017.03.029.049.038s.041.014.064.014.044-.005.063-.014.036-.021.049-.038c.014-.016.025-.035.032-.058s.011-.048.011-.076-.004-.054-.011-.077c-.007-.022-.018-.042-.032-.059-.013-.017-.03-.03-.049-.038-.019-.01-.04-.014-.063-.014s-.045.005-.064.014c-.019.008-.035.021-.049.038-.013.017-.024.037-.031.059-.007.023-.011.049-.011.077z" fill="#fff" transform="matrix(24 0 0 24 306.4596 246.0001)"></path><path d="m.093-.712h.082v.194l-.002.094c.023-.023.05-.041.079-.054.028-.013.057-.02.086-.02.033 0 .062.006.087.018.025.011.046.028.063.05.017.021.03.047.039.078.009.03.013.064.013.101 0 .041-.006.078-.018.111s-.028.06-.048.083c-.021.023-.044.04-.071.052-.027.011-.054.017-.083.017-.023 0-.048-.006-.076-.017-.026-.012-.052-.028-.075-.049h-.003l-.007.054h-.066v-.712zm.082.598c.023.021.047.035.071.044.023.009.044.013.061.013.021 0 .041-.005.059-.014s.034-.021.047-.038c.013-.016.024-.036.031-.06s.011-.051.011-.081c0-.027-.003-.051-.008-.073s-.013-.041-.024-.056c-.011-.016-.026-.028-.043-.037s-.038-.013-.062-.013c-.021 0-.044.006-.068.017-.025.012-.05.031-.075.056z" fill="#fff" transform="matrix(24 0 0 24 320.8596 246.0001)"></path><path d="m.081-.126c0-.027.007-.051.02-.072.012-.02.033-.037.062-.052.028-.015.064-.027.109-.036s.098-.017.161-.022c-.001-.017-.003-.032-.008-.047s-.012-.027-.022-.038c-.01-.012-.023-.02-.04-.027-.016-.007-.036-.01-.059-.01-.032 0-.063.006-.092.019-.029.012-.055.025-.078.039l-.032-.056c.012-.008.026-.016.042-.024.017-.009.034-.016.052-.023.019-.007.038-.012.059-.016.021-.005.042-.007.063-.007.067 0 .116.018.148.055.033.036.049.084.049.145v.298h-.067l-.007-.066h-.003c-.027.021-.058.04-.091.055s-.066.023-.101.023c-.023 0-.044-.003-.064-.009-.02-.007-.038-.016-.053-.027-.015-.012-.026-.026-.035-.043s-.013-.037-.013-.059zm.08-.006c0 .014.003.026.009.036.006.009.014.017.023.024.01.006.021.011.034.014s.027.004.041.004c.028 0 .055-.006.082-.018.027-.013.055-.031.083-.054v-.128c-.052.004-.096.01-.131.017s-.063.016-.084.027c-.021.01-.035.022-.044.035s-.013.027-.013.043z" fill="#fff" transform="matrix(24 0 0 24 335.2596 246.0001)"></path><path d="m.081-.712h.248v.555c0 .036.008.062.025.077.017.016.041.024.07.024.027 0 .057-.008.092-.023l.021.062c-.022.008-.043.015-.062.02-.019.006-.042.009-.069.009-.052 0-.092-.015-.118-.044-.028-.029-.041-.073-.041-.131v-.482h-.166z" fill="#fff" transform="matrix(24 0 0 24 349.6596 246.0001)"></path><path d="m.09-.486h.308v.486h-.082v-.419h-.226zm.258-.1c-.019 0-.035-.006-.047-.017-.013-.011-.019-.027-.019-.046s.006-.035.019-.046c.012-.012.028-.018.047-.018s.034.006.047.018c.013.011.019.027.019.046s-.006.035-.019.046-.028.017-.047.017z" fill="#fff" transform="matrix(24 0 0 24 378.4596 246.0001)"></path><path d="m.093-.486h.068l.007.083h.004c.025-.027.053-.05.082-.068s.063-.027.101-.027c.058 0 .101.016.128.049.026.033.04.082.04.147v.302h-.082v-.291c0-.046-.009-.08-.026-.102-.017-.023-.046-.034-.086-.034-.015 0-.028.002-.04.006-.013.003-.025.009-.037.016s-.024.017-.037.028-.026.023-.04.038v.339h-.082z" fill="#fff" transform="matrix(24 0 0 24 392.8596 246.0001)"></path><path d="m.09-.486h.308v.486h-.082v-.419h-.226zm.258-.1c-.019 0-.035-.006-.047-.017-.013-.011-.019-.027-.019-.046s.006-.035.019-.046c.012-.012.028-.018.047-.018s.034.006.047.018c.013.011.019.027.019.046s-.006.035-.019.046-.028.017-.047.017z" fill="#fff" transform="matrix(24 0 0 24 407.2596 246.0001)"></path><path d="m.206-.419h-.137v-.062l.14-.005.011-.136h.068v.136h.239v.067h-.239v.231c0 .022.002.041.006.057.004.017.011.031.02.042s.022.02.038.025c.016.006.036.009.059.009s.044-.002.063-.006.037-.009.054-.016l.018.06c-.022.008-.046.015-.073.02-.027.006-.053.009-.08.009-.035 0-.065-.005-.089-.015-.024-.009-.043-.023-.058-.041-.014-.017-.024-.038-.031-.063-.006-.025-.009-.052-.009-.082z" fill="#fff" transform="matrix(24 0 0 24 421.6596 246.0001)"></path><path d="m.219-.072c0-.025.008-.046.023-.062.016-.015.035-.023.058-.023s.042.008.057.023c.016.016.024.037.024.062s-.008.046-.024.061c-.015.015-.034.023-.057.023s-.042-.008-.057-.023c-.016-.015-.024-.036-.024-.061z" fill="#fff" transform="matrix(24 0 0 24 436.0596 246.0001)"></path><path d="m.06-.242c0-.039.006-.075.019-.107.012-.031.028-.058.049-.08.02-.022.043-.039.07-.051s.054-.018.083-.018c.03 0 .056.006.079.017s.045.027.068.046l-.003-.09v-.187h.082v.712h-.068l-.007-.064h-.003c-.02.021-.044.039-.072.054-.027.015-.056.022-.086.022-.032 0-.061-.006-.086-.017-.026-.011-.048-.028-.067-.049-.019-.022-.033-.049-.043-.08s-.015-.067-.015-.108zm.085-.001c0 .059.013.104.038.137s.06.049.105.049c.048 0 .094-.024.137-.073v-.242c-.022-.021-.043-.035-.064-.044s-.043-.013-.064-.013-.041.004-.059.013c-.019.009-.035.022-.048.038-.014.017-.025.036-.033.059s-.012.048-.012.076z" fill="#fff" transform="matrix(24 0 0 24 450.4596 246.0001)"></path><path d="m.069-.242c0-.04.007-.076.021-.108.014-.031.032-.058.055-.08s.05-.039.079-.05c.03-.012.061-.018.092-.018.035 0 .066.006.093.017s.05.026.07.046c.019.02.033.044.043.072s.015.059.015.093c0 .009 0 .017-.001.026 0 .008-.001.015-.002.021h-.38c.001.026.006.049.015.07.01.021.023.038.039.053.017.015.036.026.058.034.023.008.047.012.074.012.029 0 .055-.004.078-.012.024-.008.047-.019.07-.033l.029.054c-.024.015-.051.029-.082.04s-.066.017-.105.017c-.036 0-.07-.006-.102-.017-.031-.012-.059-.029-.083-.05-.023-.022-.042-.049-.056-.08-.013-.031-.02-.067-.02-.107zm.392-.04c0-.049-.013-.086-.038-.112s-.061-.039-.106-.039c-.02 0-.039.003-.058.01-.018.007-.034.016-.049.029s-.027.029-.037.048-.017.04-.02.064z" fill="#fff" transform="matrix(24 0 0 24 464.8596 246.0001)"></path><path d="m.559-.634c-.02-.009-.038-.016-.055-.018-.017-.003-.037-.005-.058-.005-.044 0-.076.011-.094.033-.019.023-.029.054-.029.094v.044h.204v.067h-.204v.419h-.081v-.419h-.139v-.062l.139-.005v-.041c0-.059.016-.107.048-.143.031-.036.081-.054.148-.054.048 0 .095.009.14.028z" fill="#fff" transform="matrix(24 0 0 24 479.2596 246.0001)"></path><path d="m.081-.126c0-.027.007-.051.02-.072.012-.02.033-.037.062-.052.028-.015.064-.027.109-.036s.098-.017.161-.022c-.001-.017-.003-.032-.008-.047s-.012-.027-.022-.038c-.01-.012-.023-.02-.04-.027-.016-.007-.036-.01-.059-.01-.032 0-.063.006-.092.019-.029.012-.055.025-.078.039l-.032-.056c.012-.008.026-.016.042-.024.017-.009.034-.016.052-.023.019-.007.038-.012.059-.016.021-.005.042-.007.063-.007.067 0 .116.018.148.055.033.036.049.084.049.145v.298h-.067l-.007-.066h-.003c-.027.021-.058.04-.091.055s-.066.023-.101.023c-.023 0-.044-.003-.064-.009-.02-.007-.038-.016-.053-.027-.015-.012-.026-.026-.035-.043s-.013-.037-.013-.059zm.08-.006c0 .014.003.026.009.036.006.009.014.017.023.024.01.006.021.011.034.014s.027.004.041.004c.028 0 .055-.006.082-.018.027-.013.055-.031.083-.054v-.128c-.052.004-.096.01-.131.017s-.063.016-.084.027c-.021.01-.035.022-.044.035s-.013.027-.013.043z" fill="#fff" transform="matrix(24 0 0 24 493.6596 246.0001)"></path><path d="m.505 0h-.067l-.007-.085h-.004c-.025.029-.051.052-.08.07-.029.018-.063.027-.101.027-.059 0-.101-.017-.128-.05s-.041-.081-.041-.146v-.302h.083v.291c0 .046.009.08.026.103.017.022.045.033.086.033.028 0 .053-.007.076-.022.023-.014.048-.037.075-.068v-.337h.082v.486z" fill="#fff" transform="matrix(24 0 0 24 508.0596 246.0001)"></path><path d="m.081-.712h.248v.555c0 .036.008.062.025.077.017.016.041.024.07.024.027 0 .057-.008.092-.023l.021.062c-.022.008-.043.015-.062.02-.019.006-.042.009-.069.009-.052 0-.092-.015-.118-.044-.028-.029-.041-.073-.041-.131v-.482h-.166z" fill="#fff" transform="matrix(24 0 0 24 522.4596 246.0001)"></path><path d="m.206-.419h-.137v-.062l.14-.005.011-.136h.068v.136h.239v.067h-.239v.231c0 .022.002.041.006.057.004.017.011.031.02.042s.022.02.038.025c.016.006.036.009.059.009s.044-.002.063-.006.037-.009.054-.016l.018.06c-.022.008-.046.015-.073.02-.027.006-.053.009-.08.009-.035 0-.065-.005-.089-.015-.024-.009-.043-.023-.058-.041-.014-.017-.024-.038-.031-.063-.006-.025-.009-.052-.009-.082z" fill="#fff" transform="matrix(24 0 0 24 536.8596 246.0001)"></path><path d="m.103-.656h.18c.033 0 .064.003.091.009.028.006.052.015.072.028.019.013.034.029.045.049.012.021.017.045.017.074 0 .033-.01.062-.028.088-.02.027-.048.045-.087.055v.004c.048.007.085.024.112.05s.04.062.04.107c0 .032-.006.06-.018.084s-.029.044-.05.06c-.022.016-.048.028-.079.036-.03.008-.063.012-.1.012h-.195zm.166.28c.056 0 .096-.01.121-.029.024-.019.036-.047.036-.084 0-.036-.013-.062-.039-.078-.025-.015-.063-.023-.114-.023h-.086v.214zm.017.31c.057 0 .1-.01.131-.032.031-.021.046-.053.046-.098 0-.041-.015-.071-.045-.09-.03-.018-.074-.028-.132-.028h-.099v.248z" fill="#fff" transform="matrix(24 0 0 24 551.2596 246.0001)"></path><path d="m.146-.486h.068l.007.115h.003c.025-.039.057-.07.094-.093.036-.023.078-.034.123-.034.018 0 .035.002.05.005s.031.008.046.015l-.019.071c-.017-.006-.032-.01-.043-.013-.012-.003-.028-.004-.047-.004-.037 0-.072.011-.106.031-.033.022-.065.057-.094.108v.285h-.082z" fill="#fff" transform="matrix(24 0 0 24 565.6596 246.0001)"></path><path d="m.081-.126c0-.027.007-.051.02-.072.012-.02.033-.037.062-.052.028-.015.064-.027.109-.036s.098-.017.161-.022c-.001-.017-.003-.032-.008-.047s-.012-.027-.022-.038c-.01-.012-.023-.02-.04-.027-.016-.007-.036-.01-.059-.01-.032 0-.063.006-.092.019-.029.012-.055.025-.078.039l-.032-.056c.012-.008.026-.016.042-.024.017-.009.034-.016.052-.023.019-.007.038-.012.059-.016.021-.005.042-.007.063-.007.067 0 .116.018.148.055.033.036.049.084.049.145v.298h-.067l-.007-.066h-.003c-.027.021-.058.04-.091.055s-.066.023-.101.023c-.023 0-.044-.003-.064-.009-.02-.007-.038-.016-.053-.027-.015-.012-.026-.026-.035-.043s-.013-.037-.013-.059zm.08-.006c0 .014.003.026.009.036.006.009.014.017.023.024.01.006.021.011.034.014s.027.004.041.004c.028 0 .055-.006.082-.018.027-.013.055-.031.083-.054v-.128c-.052.004-.096.01-.131.017s-.063.016-.084.027c-.021.01-.035.022-.044.035s-.013.027-.013.043z" fill="#fff" transform="matrix(24 0 0 24 580.0596 246.0001)"></path><path d="m.093-.486h.068l.007.083h.004c.025-.027.053-.05.082-.068s.063-.027.101-.027c.058 0 .101.016.128.049.026.033.04.082.04.147v.302h-.082v-.291c0-.046-.009-.08-.026-.102-.017-.023-.046-.034-.086-.034-.015 0-.028.002-.04.006-.013.003-.025.009-.037.016s-.024.017-.037.028-.026.023-.04.038v.339h-.082z" fill="#fff" transform="matrix(24 0 0 24 594.4596 246.0001)"></path><path d="m.08-.242c0-.041.007-.077.022-.109.014-.031.033-.058.058-.08s.054-.039.086-.05c.034-.011.068-.017.105-.017.04 0 .075.007.104.021s.053.031.073.05l-.041.053c-.02-.017-.041-.031-.062-.041-.022-.01-.046-.015-.071-.015-.028 0-.054.005-.077.014-.023.008-.043.021-.059.038-.017.017-.03.037-.039.059-.009.023-.014.049-.014.077s.005.053.014.076.021.042.038.058c.016.017.036.029.059.038s.048.014.076.014c.03 0 .058-.006.083-.018.025-.011.047-.026.068-.043l.036.053c-.027.024-.056.043-.089.056-.033.013-.068.02-.104.02-.038 0-.073-.006-.105-.017-.033-.011-.061-.028-.085-.05-.024-.021-.043-.048-.056-.08-.013-.031-.02-.067-.02-.107z" fill="#fff" transform="matrix(24 0 0 24 608.8596 246.0001)"></path><path d="m.093-.712h.082v.194l-.004.115c.026-.027.054-.05.083-.068s.063-.027.101-.027c.058 0 .101.017.128.05.026.033.04.081.04.146v.302h-.082v-.291c0-.046-.009-.08-.026-.102-.017-.023-.046-.034-.086-.034-.015 0-.028.002-.04.006-.013.003-.025.009-.037.016s-.024.017-.037.028-.026.023-.04.038v.339h-.082z" fill="#fff" transform="matrix(24 0 0 24 623.2596 246.0001)"></path><path d="m.06-.486h.064l.007.064h.003c.012-.023.026-.041.042-.055.017-.014.039-.021.067-.021.049 0 .08.028.092.084.015-.025.031-.046.048-.061s.04-.023.067-.023c.034 0 .06.013.078.038.019.026.028.063.028.112v.348h-.079v-.341c0-.057-.018-.086-.053-.086-.017 0-.032.006-.045.019-.013.012-.025.031-.038.056v.352h-.066v-.341c0-.057-.018-.086-.055-.086-.017 0-.032.006-.044.019-.012.012-.024.031-.037.056v.352h-.079v-.486z" fill="#fff" transform="matrix(24 0 0 24 652.0596 246.0001)"></path><path d="m.081-.126c0-.027.007-.051.02-.072.012-.02.033-.037.062-.052.028-.015.064-.027.109-.036s.098-.017.161-.022c-.001-.017-.003-.032-.008-.047s-.012-.027-.022-.038c-.01-.012-.023-.02-.04-.027-.016-.007-.036-.01-.059-.01-.032 0-.063.006-.092.019-.029.012-.055.025-.078.039l-.032-.056c.012-.008.026-.016.042-.024.017-.009.034-.016.052-.023.019-.007.038-.012.059-.016.021-.005.042-.007.063-.007.067 0 .116.018.148.055.033.036.049.084.049.145v.298h-.067l-.007-.066h-.003c-.027.021-.058.04-.091.055s-.066.023-.101.023c-.023 0-.044-.003-.064-.009-.02-.007-.038-.016-.053-.027-.015-.012-.026-.026-.035-.043s-.013-.037-.013-.059zm.08-.006c0 .014.003.026.009.036.006.009.014.017.023.024.01.006.021.011.034.014s.027.004.041.004c.028 0 .055-.006.082-.018.027-.013.055-.031.083-.054v-.128c-.052.004-.096.01-.131.017s-.063.016-.084.027c-.021.01-.035.022-.044.035s-.013.027-.013.043z" fill="#fff" transform="matrix(24 0 0 24 666.4596 246.0001)"></path><path d="m.09-.486h.308v.486h-.082v-.419h-.226zm.258-.1c-.019 0-.035-.006-.047-.017-.013-.011-.019-.027-.019-.046s.006-.035.019-.046c.012-.012.028-.018.047-.018s.034.006.047.018c.013.011.019.027.019.046s-.006.035-.019.046-.028.017-.047.017z" fill="#fff" transform="matrix(24 0 0 24 680.8596 246.0001)"></path><path d="m.093-.486h.068l.007.083h.004c.025-.027.053-.05.082-.068s.063-.027.101-.027c.058 0 .101.016.128.049.026.033.04.082.04.147v.302h-.082v-.291c0-.046-.009-.08-.026-.102-.017-.023-.046-.034-.086-.034-.015 0-.028.002-.04.006-.013.003-.025.009-.037.016s-.024.017-.037.028-.026.023-.04.038v.339h-.082z" fill="#fff" transform="matrix(24 0 0 24 695.2596 246.0001)"></path></g></g></svg> 